<svg width="439" height="328" fill="none" xmlns="http://www.w3.org/2000/svg">
  <path fill-rule="evenodd" clip-rule="evenodd" d="M225.845 305.095c.423-7.853.942-15.7 1.564-23.54 1.238-15.616 2.86-31.245 5.559-46.682 2.663-15.231 6.389-30.042 11.758-44.556 2.491-6.733 5.188-12.478 9.101-18.531 3.7-5.723 8.421-9.601 14.304-13.056 5.299-3.113 11.456-8.513 16.539-11.999 2.123-1.455 6.489-1.358 7.944-3.511 1.905-2.819.67-7.133 2.591-9.943 2.196-3.212 5.272-5.708 8.741-7.52 3.786-2.565 8.245-3.725 12.717-3.566 6.593-.399 13.234 1.7 17.467 7.067 2.112 2.679 3.345 5.769 3.516 9.191.044.89-.241 1.592-.712 2.099.279.373.557.746.833 1.122.865-1.283 2.889-1.964 4.238-.996a59.433 59.433 0 0014.214 7.532c1.177-.557 2.603-.299 3.611.611.41.369.844.684 1.298.952 1.866.506 3.761.929 5.684 1.255.602.102 1.112.444 1.499.905.573-.536 1.361-.793 2.241-.458 10.157 3.873 19.749 9.889 27.04 18.039 8.078 9.029 12.321 20.261 15.551 31.769 3.496 12.457 5.731 25.224 7.607 38.012 1.902 12.958 3.775 25.966 5.083 38.999.737 7.334 1.018 14.735.684 22.101a109.521 109.521 0 01-1.038 10.998c-.124.853-.255 1.835-.465 2.816.639-.124 1.4.416 1.271 1.282-.903 6.026-8.188 7.781-13.212 8.475-8.218 1.135-16.479 1.765-24.777 1.813-8.153.048-16.306-.476-24.443-.945-8.342-.48-16.684-.963-25.026-1.452-33.422-1.96-66.846-3.898-100.269-5.859-3.053-.179-6.54-.421-9.155-2.193-3.586-2.428-3.77-6.287-3.558-10.231z" fill="#fff"/>
  <path fill-rule="evenodd" clip-rule="evenodd" d="M388.778 237.691c.116-.218-.153-.413-.331-.256-4.058 3.561-6.182 9.28-6.627 14.566-.472 5.605.197 11.409.452 17.012.285 6.242.541 12.485.888 18.724.353 6.329.733 12.656 1.058 18.987l.733 14.24c.078 1.518-.091 3.385.491 4.801.903 2.196 3.584 1.856 4.147.021l.018-.061.051.04c.497-1.654.125-3.618.041-5.328l-.768-15.559c-.542-10.998-1.026-21.995-1.608-32.991l-.198-3.665a696.753 696.753 0 01-.649-14.787l-.054-1.645c-.16-4.952-.033-9.628 2.356-14.099zm-98.357-91.297c-2.261-.215-3.968.535-6.02 1.325-.894.344-1.74.741-2.598 1.152-1.074.515-1.764 1.425-2.425 2.388l-.354.519c-2.753 4.034-4.605 8.688-6.695 13.081-2.445 5.138-4.914 10.265-7.306 15.427l-1.181 2.544a527.712 527.712 0 00-1.758 3.821l-1.002 2.222c-1.006 2.253-1.908 4.637-.474 6.961 1.334 2.162 3.698 3.835 5.57 5.506l4.686 4.182c-3.229 3.235-5.398 7.308-6.672 11.675-1.811-.754-4.021-.899-5.893-1.225-2.621-.457-2.942 3.511-.469 3.462 1.827-.035 3.97.151 5.844-.234a36.54 36.54 0 00-.712 4.354c-.788 7.657.933 15.359 2.727 22.767l.148.609c1.949 8.018 3.797 16.058 5.45 24.144a604.007 604.007 0 014.47 24.403c1.347 8.31 2.299 16.665 3.324 25.019.155 1.264.95 2.348 2.347 2.348 1.164 0 2.494-1.086 2.347-2.348-1.056-9.097-2.555-18.146-4.044-27.181-2.564-15.559-5.792-30.983-9.505-46.305l-.648-2.668c-1.671-6.921-3.186-14.051-2.349-21.19.683-5.812 3.113-12.01 7.916-15.62l.146-.109c1.122-.823 1.553-2.396.449-3.48l-2.112-2.067-4.228-4.128-.852-.833a85.424 85.424 0 00-2.16-2.053c-.445-.404-1.652-1.175-1.741-1.84-.057-.435.457-1.197.665-1.597l.955-1.926c.541-1.099 1.067-2.205 1.596-3.31 1.096-2.289 2.208-4.57 3.281-6.87l6.444-13.81c1.818-3.896 3.438-8.009 5.814-11.611l.469-.702c.391-.591.737-1.16.984-1.883.238-.696.536-1.46.975-2.053 1.03-1.393 2.997-2.184 4.643-2.475.238-.043.152-.371-.052-.391zm49.562-3.627c-.143 0-.165.204-.033.244 1.987.597 3.885 1.561 5.433 2.952.741.666 1.487 1.422 1.944 2.318.175.343.272.705.343 1.081l.023.125c.118.679.287 1.057.631 1.6l.059.092c1.968 3.039 3.347 6.415 4.608 9.795l2.747 7.37 2.744 7.371 2.653 7.125c.489 1.312.991 2.617 1.493 3.923.217.566.451 1.128.65 1.7.027.078.114.55.179.664l-.022.039c-.553.931-2.03 1.709-2.866 2.386l-2.882 2.33c-2.054 1.661-4.161 3.276-6.153 5.011-1.252 1.09-.473 3.041.922 3.496 2.34.762 4.631 1.674 6.935 2.537.931.348 1.9.651 2.82 1.035l.56.242c.219.099.114.098.105.501-.009.424-.129.865-.198 1.281a719.308 719.308 0 01-2.467 14.055c-3.071 16.539-6.741 32.957-10.926 49.249-2.114 8.228-4.381 16.415-6.541 24.63-2.155 8.193-4.99 16.269-7.698 24.294-.764 2.263 2.824 3.237 3.569.984 3.12-9.438 5.975-18.958 8.923-28.449 5.237-16.865 9.364-34.096 13.014-51.368a727.402 727.402 0 005.797-30.674l.398-2.403c.272-1.713.427-3.498-.904-4.853-1.3-1.323-3.532-1.792-5.243-2.413l-.124-.046c-1.089-.406-2.185-.797-3.277-1.201 1.609-1.267 3.198-2.561 4.803-3.827 1.294-1.022 2.609-2.022 3.885-3.067 1.052-.862 1.91-1.968 2.02-3.369.112-1.433-.502-2.762-.997-4.075l-.047-.127a394.838 394.838 0 00-1.473-3.929l-3.092-8.087c-1.965-5.14-3.847-10.32-5.914-15.419-.818-2.018-1.709-4.005-2.762-5.912a33.23 33.23 0 00-1.644-2.688c-.662-.974-1.264-1.449-2.291-1.986-1.643-.859-2.932-2.299-4.581-3.184-1.619-.869-3.285-1.333-5.123-1.353zm-5.332-9.169c-.063-.107-.229-.059-.231.063-.043 2.554.564 5.164.937 7.69.375 2.534.495 5.209 1.038 7.717.011.117.033.232.065.345l.026.086c.229.702.825 1.298 1.555 1.484a102.85 102.85 0 00-.628 3.83 462.6 462.6 0 00-.879 6.618l-.336 2.65c-.317 2.497-.625 4.994-.93 7.493-.776.324-1.567.592-2.378.823-1.867.535-3.779.752-5.705.941-3.923.385-7.876.563-11.813.782l-.843.047c-4.426.254-8.876.299-13.291-.155a46.279 46.279 0 01-6.496-1.139c-1.084-.272-2.139-.679-3.221-.945-.359-.088-.68-.292-1.04-.509a1.132 1.132 0 00-.676-.414l-.079-.014-.078-.011-.027-.012.002.008a2.34 2.34 0 00-.631-.002 407.08 407.08 0 00-.271-5.843c-.289-5.23-1.084-10.686-.022-15.87.035-.175-.202-.236-.264-.073-2.082 5.488-1.849 11.49-1.953 17.266-.103 5.649-.041 11.302-.013 16.953a2.829 2.829 0 00-1.051.733c-.571.654-.736 1.792 0 2.424.326.28.686.475 1.069.61.02 4.908.055 9.817.104 14.726-.933.721-1.02 2.433.035 3.145.176 15.897.465 31.794.705 47.689l.501 33.347c.067 4.443.178 8.886.218 13.328l-.032.013-.111.051c-.187.088-.465.23-.523.375a.183.183 0 00-.017.084c-.306.043-.61.188-.872.437-.649.616-.517 1.544 0 2.171l.138.168c.322.391.933.541 1.432.462-.005 2.772-.023 5.546-.014 8.318.003.847.016 1.694.03 2.541l.035 2.031c.023 1.159.126 2.631 1.313 3.152 1.339.587 2.539.106 3.081-1.254.147-.368.116-.711.062-1.076.017-.547.102-1.181.092-1.689l-.045-2.117c-.006-.326-.02-.652-.029-.979l.039.004c4.757.231 9.548.118 14.313.116l2.119.003c1.768.001 3.54-.008 5.306-.076l.662-.028c1.322-.062 2.712-.082 4.082-.2a214.837 214.837 0 00-.483 4.224c-.138 1.336 1.242 2.472 2.472 2.472 1.461 0 2.296-1.149 2.471-2.472.826-6.242 1.164-12.543 1.953-18.789.706-5.595 1.319-11.203 1.941-16.808l.209-1.868a7759.486 7759.486 0 006.607-61.222l.985-9.544c.995-9.619 1.996-19.239 2.841-28.873.482-5.508.927-11.017 1.346-16.53.307-4.05.5-8.078.625-12.12.496-.51.744-1.254.524-2.022a22.95 22.95 0 00-.434-1.34c.009-.437.02-.875.028-1.313.008-.414-.413-.627-.749-.559-.612-1.482-1.286-2.951-1.849-4.419-.91-2.376-1.661-4.936-2.947-7.135zm50.846 25.679c-9.518-5.965-20.846-10.257-32.193-9.795-.258.01-.331.404-.063.463 6.052 1.352 12.171 2.998 17.901 5.394a67.743 67.743 0 0116.077 9.527c8.98 7.174 15.959 16.505 20.554 27.024 2.692 6.162 4.579 12.667 6.226 19.175 1.744 6.887 3.181 13.848 4.376 20.851 2.359 13.834 3.733 27.819 4.464 41.829.744 14.251.437 28.513.968 42.766.092 2.47 3.621 2.421 3.8 0 1.202-16.205.536-32.669-.575-48.862-1-14.558-2.745-29.085-5.556-43.408l-.244-1.242c-2.628-13.252-5.797-26.824-12.148-38.825-5.423-10.246-13.795-18.759-23.587-24.897zm-132.162 63.335a.15.15 0 00-.287 0c-1.085 3.037-1.124 6.465-1.412 9.667l-.023.245c-.277 2.921-.485 5.845-.679 8.771l-.072 1.098c-.777 11.938-1.748 23.863-3.212 35.738-1.459 11.831-3.431 23.579-5.563 35.304-.238 1.306.34 2.636 1.709 3.012 1.206.331 2.755-.412 3.011-1.71 1.324-6.73 2.394-13.469 3.35-20.257a497.265 497.265 0 003.743-36.006c.405-6.049.654-12.096.753-18.158a121.28 121.28 0 00-.177-8.442l-.036-.648c-.165-2.872-.148-5.875-1.105-8.614zm102.84 76.04c-.127-.069-.284.072-.204.204 1.843 2.995 4.336 5.578 6.746 8.123 2.519 2.661 4.975 5.402 7.545 8.011 1.857 1.884 4.844-1.155 2.884-2.885-2.755-2.43-5.635-4.74-8.439-7.116l-1.227-1.04c-2.299-1.943-4.667-3.868-7.305-5.297zm-87.529-1.5c.138-.263-.176-.475-.39-.301-1.486 1.208-2.819 2.651-4.254 3.926a72.96 72.96 0 01-4.411 3.592 83.843 83.843 0 01-4.672 3.312c-1.324.869-2.688 1.566-4.075 2.288-.642.083-1.236.398-1.712.995-.753.945-.833 2.727.211 3.548l.187.147c1.218.957 2.664 1.074 3.863 0 1.339-1.199 2.605-2.519 3.89-3.786l.387-.378a73.363 73.363 0 004-4.178l1.15-1.309c2.134-2.434 4.356-5.058 5.826-7.856zm6.847-140.327c.248-.164.095-.605-.21-.5l-.56.194c-2.339.813-4.746 1.714-6.87 2.966-2.282 1.345-4.389 2.947-6.403 4.666-4.167 3.557-7.712 7.932-10.725 12.492-6.045 9.15-9.784 19.629-12.802 30.115-3.219 11.18-5.697 22.6-7.72 34.053-2.056 11.639-3.642 23.383-4.685 35.157a298.2 298.2 0 00-1.031 17.423c-.089 2.994-.086 5.986-.061 8.981.006.77.001 1.54-.008 2.31l-.029 2.309c-.016 1.461-.191 2.995.156 4.422.559 2.297 4.356 1.868 4.231-.479.114-.781.119-1.588.089-2.397.018-.104.038-.21.06-.319.062-.31.009-.597-.113-.844a35.09 35.09 0 01-.044-1.153c-.025-1.542-.023-3.078.02-4.619.089-3.251.219-6.501.349-9.75.261-6.493.624-12.988 1.151-19.465 1.83-22.543 5.697-45.215 12.191-66.904 3.016-10.072 7.174-19.958 13.137-28.662a75.66 75.66 0 018.944-10.744c3.332-3.333 7.003-6.649 10.933-9.252zm44.935 145.326l-.45 3.256a616.125 616.125 0 00-.659 4.886c-1.436-.197-2.906-.279-4.29-.402-2.423-.215-4.863-.319-7.293-.419-5.026-.207-10.076-.567-15.107-.542-.052.001-.1.004-.149.008l-.25-6.423 3.535-.006c2.995-.005 5.989-.03 8.983-.056 2.697-.023 5.395-.027 8.092-.083l1.156-.027c2.045-.055 4.303.058 6.432-.192zm-28.494-9.323c.144.016.291.031.447.037.7.03 1.405.009 2.106.015a513.5 513.5 0 004.475.023c2.984 0 5.967.018 8.95.054 3.071.037 6.14.09 9.211.096 1.488.003 2.971-.037 4.459-.078a361.18 361.18 0 01-.77 6.334c-2.31-.312-4.794-.155-7.052-.176l-.293-.004c-3.081-.053-6.165-.014-9.247-.01-3.171.004-6.341.014-9.512.04l-2.605.021-.005-.131a339.136 339.136 0 01-.164-6.221zm30.794-10.115c-.289 2.496-.56 4.996-.837 7.495a10.777 10.777 0 00-.559-.073c-1.49-.156-2.977-.289-4.472-.382-2.982-.185-5.962-.282-8.948-.362a707.782 707.782 0 00-9.213-.189 215.419 215.419 0 00-4.476-.009c-.7.005-1.407-.017-2.106.03a5.644 5.644 0 00-.241.023l-.053-3.752c-.009-.625-.018-1.25-.029-1.875 2.307.142 4.652.088 6.956.089l.531.001c2.896.013 5.793-.027 8.688-.087 2.987-.062 5.968-.16 8.95-.351a77.532 77.532 0 003.608-.313l.601-.068c.523-.062 1.061-.112 1.6-.177zm-31.172-10.587c5.555.44 11.08.625 16.649.679l.836.008c4.921.037 9.883.24 14.816.11-.295 2.557-.589 5.115-.885 7.672-.707-.033-1.417-.033-2.107-.058a123.099 123.099 0 00-4.21-.067c-2.895-.006-5.79.019-8.686.013a534.273 534.273 0 01-8.951-.113c-2.419-.045-4.863-.227-7.289-.221l-.173-8.023zm-.235-10.912c.644.214 1.404.228 2.237.266l2.15.107c.997.049 1.993.095 2.991.131 3.323.122 6.646.236 9.969.342 3.406.108 6.828.17 10.234.063a96.512 96.512 0 004.986-.279c.411-.035.831-.057 1.251-.087-.388 3.389-.776 6.777-1.166 10.165-4.91-.603-9.857-.978-14.761-1.601l-4.433-.567c-4.432-.565-8.86-1.12-13.308-1.588l-.15-6.952zm-.236-11.031c.944.233 2.02.221 2.927.279l.168.011c1.719.131 3.441.196 5.164.238 3.375.083 6.753.125 10.13.146l2.03.012c2.707.016 5.413.023 8.12-.04 1.737-.04 3.47-.125 5.206-.212.52-.027 1.051-.044 1.584-.071-.363 3.209-.729 6.416-1.095 9.623-.57-.09-1.143-.159-1.689-.251a87.439 87.439 0 00-4.204-.594c-3.051-.366-6.118-.629-9.184-.851-3.147-.228-6.297-.421-9.445-.642l-2.229-.157c-.743-.052-1.486-.102-2.23-.147-1.269-.078-2.745.01-4.005-.267a1.838 1.838 0 00-1.098-.093l-.15-6.984zm-.286-12.913c.327.415.815.633 1.397.708 3.031.393 6.14.456 9.196.642l.539.034c3.156.208 6.314.371 9.472.539 3.245.172 6.489.312 9.736.426 1.378.048 2.764.053 4.145.035l.591-.008c.567-.01 1.161-.009 1.756-.028-.33 3-.662 5.999-.999 8.998-.607-.066-1.214-.116-1.802-.178a193.646 193.646 0 00-5.205-.502c-3.294-.26-6.591-.416-9.891-.579-3.376-.167-6.755-.279-10.132-.436a108.654 108.654 0 01-4.906-.323c-1.144-.105-2.503-.494-3.697-.351-.065-2.993-.133-5.985-.2-8.977zm-.266-11.567c.051.08.112.157.185.229 1.334 1.319 2.979 1.217 4.747 1.356l.109.008c1.733.146 3.467.285 5.202.41 3.468.25 6.943.425 10.416.581 3.555.16 7.132.27 10.69.198 2.278-.047 4.665-.039 6.989-.261a6665.08 6665.08 0 01-1.078 9.911c-.653-.124-1.311-.218-1.934-.316-1.57-.247-3.141-.495-4.72-.677a538.174 538.174 0 00-9.473-1.01c-2.703-.262-5.406-.528-8.111-.768l-1.624-.14c-3.228-.272-6.497-.719-9.735-.786-.534-.011-1.138.28-1.443.738-.072-3.158-.146-6.315-.22-9.473zm-.225-9.365c.825.101 1.713.044 2.474.069 1.923.062 3.847.121 5.77.177l11.542.341c3.93.116 7.874.203 11.805.147 1.729-.024 3.466-.027 5.195-.121l.576-.035c.711-.047 1.584-.054 2.437-.141L329.1 226.1c-2.312-.334-4.696-.459-6.989-.655l-.49-.043c-3.382-.308-6.78-.512-10.168-.742a636.047 636.047 0 01-10.417-.813c-1.735-.146-3.469-.291-5.203-.451l-.214-.021c-1.637-.171-3.177-.535-4.627.431-.212.141-.378.33-.492.541-.063-2.67-.125-5.339-.192-8.009zm-.268-10.882a785.02 785.02 0 0021.094.592c3.959.053 7.914.016 11.873-.067a93.78 93.78 0 005.163-.249l.643-.052c.815-.069 1.672-.119 2.525-.201-.352 3.206-.702 6.413-1.049 9.62-.839-.156-1.717-.228-2.452-.322l-.167-.022c-1.828-.252-3.672-.398-5.509-.56-3.576-.315-7.169-.518-10.755-.691-3.672-.176-7.345-.326-11.017-.489l-3.673-.165c-.612-.027-1.224-.054-1.836-.079l-2.623-.109c-.432-.018-.88-.076-1.312-.054l-.123-.016c-.056-.008-.106-.013-.152-.018a1.71 1.71 0 00-.378-.22l-.082-.032-.17-6.866zm42.451-10.313c-.327 2.887-.649 5.774-.968 8.661-1.003-.115-2.017-.178-2.974-.264-1.931-.173-3.87-.325-5.806-.414l-3.87-.18a796.873 796.873 0 00-7.74-.328c-7.064-.258-14.128-.554-21.189-.914-.049-1.959-.101-3.917-.153-5.875.339.363.828.602 1.472.601 7.412-.02 14.83.023 22.241-.099 3.71-.062 7.415-.151 11.121-.342a63.16 63.16 0 005.436-.532c.767-.106 1.607-.182 2.43-.314zm1.186-10.284c-.348 2.956-.69 5.914-1.026 8.872-.921-.165-1.872-.252-2.731-.369a71.036 71.036 0 00-5.56-.556c-3.616-.204-7.235-.307-10.856-.384-7.411-.158-14.829-.156-22.241-.215-.697-.006-1.214.27-1.553.681-.051-1.846-.106-3.692-.162-5.539.716-.075 1.426-.182 2.083-.228 2.019-.141 4.038-.27 6.059-.386 4.216-.242 8.436-.448 12.655-.632 4.22-.183 8.441-.363 12.663-.519l1.846-.068c2.936-.109 5.921-.247 8.823-.657zm1.328-11.134c-.363 2.994-.72 5.989-1.077 8.984l-.108.927c-3.531-.686-7.252-.888-10.812-1.039-4.222-.18-8.437-.272-12.663-.259a331.67 331.67 0 00-12.655.287c-2.108.087-4.215.188-6.322.302-.579.031-1.258.015-1.957.025-.015-.471-.028-.942-.044-1.412-.065-1.906-.127-3.813-.193-5.719 1.425.732 3.278 1.027 4.709 1.339l.164.036c2.364.531 4.778.875 7.191 1.086 4.74.413 9.528.259 14.263-.142l.829-.071c4.158-.36 8.468-.817 12.499-1.846 1.92-.49 3.904-1.176 5.625-2.17.179-.103.363-.213.551-.328zm-40.033-35.584c-.041-.162-.284-.198-.363-.047-.56 1.064-.768 2.34-1.157 3.48-.419 1.226-.809 2.46-1.27 3.67a50.296 50.296 0 01-3.458 7.303c-1.343 2.32 2.417 3.976 3.406 1.436 1.02-2.621 1.859-5.331 2.366-8.1.248-1.352.468-2.721.54-4.094.062-1.18.228-2.497-.064-3.648z" fill="#000"/>
  <path fill-rule="evenodd" clip-rule="evenodd" d="M267.524 86.685c.105-5.937.222-11.992 1.104-17.871.863-5.747 3.236-10.942 7.314-15.116 8.663-8.865 21.22-11.03 32.908-13.015l19.983-3.392c6.097-1.035 12.601-2.69 18.76-1.222 3.036.723 5.613 2.403 7.969 4.391 2.271 1.916 4.712 3.974 6.251 6.551 1.541 2.582 2.071 5.6 2.572 8.519a131.186 131.186 0 011.316 9.934c.625 6.662.711 13.374.257 20.05a138.44 138.44 0 01-1.015 9.681 123.875 123.875 0 01-.754 4.769c-.083.467-.146.984-.232 1.507.631 1.793.989 3.65.96 5.499-.085 5.446-4.681 8.875-9.315 10.716-2.687 1.067-5.496 1.792-8.136 2.985-2.777 1.254-4.667 3.288-6.566 5.607-3.621 4.424-7.707 8.4-12.374 11.717-9.893 7.034-22.424 10.36-34.428 7.835-2.88-.605-5.785-1.546-8.374-2.964-2.734-1.496-4.789-3.665-6.515-6.229-3.205-4.759-5.503-10.119-7.242-15.573-1.773-5.563-3.032-11.137-3.719-16.938-.684-5.782-.828-11.623-.724-17.441z" fill="#fff"/>
  <path fill-rule="evenodd" clip-rule="evenodd" d="M331.293 16.61c-8.27-1.137-19.684 2.56-23.802 10.016-19.662-4.636-44.461-4.787-60.666 10.645-16.91 18.307 4.33 42.445 18.413 47.887-1.025 4.984.574 36.912 11.886 51.154 8.978 12.067 29.886 17.636 39.561 3.223l.075-.119c1.037-1.664.144-1.611-.92-.373-9.474 8.332-22.354 8.475-32.28-.318-18.603-16.073-16.685-55.481-7.833-78.28 25.206-2.768 52.194 4.873 69.603 23.85l-1.177 7.087c-.2 1.208-.428 2.415-.602 3.626-.111.777-.124 1.55.414 2.178 1.776 2.075 4.769-1.043 7.232-2.284a10.372 10.372 0 012.17-.091c11.833 1.524 9.501 24.481-3.504 20.457-1.092-.681-2.031-.473-2.455.515-3.1 2.84-5.144 7.905-10.294 12.783-1.817 1.83-3.471 3.36-5.515 4.828-1.2 1.215-4.823 2.453-3.674 4.53 2.171 4.729 14.977-10.123 17.241-14.231 7.094 2.802 14.956 1.85 22.307 1.166 38.783-2.017 33.606-42.904 1.816-68.718-5.984-4.406-12.586-8-19.449-10.766-.936-.377-.527-1.916.423-1.533a94.92 94.92 0 0113.188 6.53l.006-1.507c.006-2.54-.034-5.183-.475-7.503-.22-1.607-.591-3.324-1.161-4.616-.706-3.96-11.759-17.552-30.528-20.135zm22.592 83.472c-.599-.57-1.717.109-2.25.092-1.363.187-2.658.762-3.668 1.473a9.925 9.925 0 00-1.525 1.047l-.011-.003c.003 0 .007.003.01.004l-.037.025c-.568.404-2.65 2.68-1.335 2.068.098-.127.199-.25.3-.37a.218.218 0 00.044.048l-.074.11c-1.118 1.682.812-.09 1.109-.561.014.012.03.02.046.028l-.387.47-.132.166-.082.078c-1.292 1.271-1.332 2.415.169.536a.613.613 0 00-.113.266l-.089.113c-1.179 1.519-.22.98.366.331l.049-.056-.01.015c-.545.84.536.251.727-.198l.008-.021c.209-.17.337-.36.381-.409l.008-.008c1.014-1.038 2.483-1.917 3.731-2.317.181-.034.364-.062.549-.081.751-.168 1.51-.283 2.277-.345.093-.011.189-.08.26-.169 1.159-.039.801-.514.32-.602l-.008-.002.095-.008c.744-.073 1.253-.34.5-.503l-.095-.019.032-.055c.644-.071.224-.697-.134-.546.15-.492-.537-.246-.623-.32-.066-.072-.147-.136-.194-.14-.207-.146-.107-.133-.214-.137zm-3.943-7.968l.151.088c.122.072.247.12.373.147a9.256 9.256 0 00-.528.245c.003-.107.005-.214.005-.32l-.001-.16z" fill="#000"/>
  <path fill-rule="evenodd" clip-rule="evenodd" d="M290.985 124.571c1.951.566 4.047.616 6.036.032 1.805-.529 3.658-1.695 4.986-3.237 1.18-1.37 1.944-3.036 1.914-4.813a.788.788 0 00-.188-.504.88.88 0 00-.468-.281.86.86 0 00-.547.048.724.724 0 00-.36.354c-.204.269-.408.533-.612.79-1.641 2.026-3.23 3.541-5.698 4.084-1.339.295-2.676.165-3.903-.285-1.314-.482-2.501-1.328-3.432-2.412-.42-.489-.916-.689-1.402-.693-.55-.003-1.094.252-1.503.661-.403.401-.672.947-.697 1.518-.021.501.142 1.025.577 1.492a11.722 11.722 0 005.297 3.246zm.059-25.385c-2.001 1.217-5.049 4.053-2.897 7.069 2.534 2.659 6.182-.39 7.979-1.769 1.667-1.068 3.54 1.68 1.993 2.928-12.989 9.618-18.261-7.91-8.087-9.658 1.12-.192 1.536 1.054 1.012 1.43zm18.717-5.352c.643-.411 1.4-.552 2.238-.17.655.297 1.804 1.29 2.604 2.596.547.894.935 1.942.854 3.033a.685.685 0 00.223.58c.117.108.285.189.483.214.168.021.356.002.509-.046.291-.09.445-.28.503-.434.56-1.487.319-3.147-.309-4.644-.846-2.02-2.384-3.713-3.392-4.259-1.724-.934-3.759-.977-5.485-.025-1.47.81-2.389 2.117-3.303 3.45-.195.284-.388.565-.587.841-.399.554-.439 1.103-.284 1.574.171.522.608.962 1.154 1.192.505.213 1.092.243 1.61.024.438-.184.841-.545 1.095-1.156.429-1.03 1.143-2.166 2.087-2.77zm-32.66 2.291c.44.23.785.299 1.273.152.27-.08.538-.236.747-.445.207-.208.356-.465.414-.751.143-.706.529-1.366 1.079-1.797a2.166 2.166 0 011.722-.453c.71.119 1.387.575 1.853 1.112.156.18.278.383.4.586.23.38.453.732.77 1.01a.711.711 0 00.688.146c.707-.71.843-1.247.82-1.781-.023-.56-.244-1.127-.601-1.656-.837-1.24-2.425-2.258-3.497-2.489-1.468-.315-2.926.064-4.095.884-1.203.844-2.094 2.154-2.372 3.63-.067.356-.038.74.097 1.072a1.5 1.5 0 00.702.78zm29.423-15.519c.881.859 1.923.992 2.978 1.11.586.066 1.054.12 1.515.224 1.265.285 2.516.716 3.658 1.335 1.193.648 2.493 1.43 3.428 2.43.223.239.432.489.642.739.192.228.376.448.571.66.223.244.435.499.646.754.13.214.156.267.182.322a6.213 6.213 0 00.382.694c.147.247.226.314.294.345.113.05.22.075.323.061a.538.538 0 00.28-.136c.452-.382.586-1.009.572-1.675-.021-1.01-.393-2.129-.737-2.816-.798-1.598-1.906-3.26-3.238-4.452-1.52-1.361-3.183-2.392-5.092-3.102-1.187-.442-2.561-.847-3.855-.796-.93.037-1.819.314-2.553 1.005-.45.424-.666 1.027-.666 1.63 0 .615.224 1.234.67 1.668zm-31.215 7.861a.483.483 0 00.219.194.511.511 0 00.55-.092.486.486 0 00.146-.254c.585-2.569 1.721-4.48 4.145-5.713 1.193-.607 2.564-.992 3.862-1.3.377-.088.776-.146 1.177-.205 1.258-.183 2.525-.394 3.345-1.41.494-.614.702-1.397.585-2.114a2.248 2.248 0 00-1.222-1.663c-1.783-.923-4-.018-5.802.753-.133.058-.264.114-.393.168-1.761.744-3.368 1.725-4.689 3.13-1.048 1.113-2.019 2.76-2.41 4.453-.325 1.41-.249 2.848.487 4.053z" fill="#000"/>
  <path fill-rule="evenodd" clip-rule="evenodd" d="M290.753 109.511c2.947-1.327 8.238-.169 10.159.291 4.466 1.072 8.959 3.386 10.347 7.013 1.565 4.087-1.557 5.374-2.016 5.163-3.092.218-6.773-1.726-10.013-2.227-2.63-.411-5.405-.769-7.869-2.167-1.799.99-5.862 1.525-9.142 2.39-2.793.737-4.003 2.335-6.592 1.995-3.103-.407-1.833-6.935 1.625-9.579 3.786-2.894 10.188-4.068 13.501-2.879zm-5.835 27.911c2.578.629 2.752-5.022 3.04-7.019.226-1.56 1.499-5.582 4.725-5.408 3.226.173 4.439 3.543 4.275 5.639-.106 1.36-1.359 8.245 2.639 9.116 2.549-.009 5.497-.181 8.177-.675 3.154-.715 7.256-3.216 8.339 1.71.39 1.773-13.504 7.04-19.67 7.517-6.252 1.267-13.568-.682-18.02-5.466-1.013-1.088-3.865-5.605-4.068-6.712-.427-2.326.561-3.822 3.438-3.002 2.033 1.085 5.468 3.896 7.125 4.3z" fill="#000"/>
  <path fill-rule="evenodd" clip-rule="evenodd" d="M272.451 103.698c3.976 1.916 9.524-.909 12.198-3.868.973-1.078 1.724-4.16 1.35-6.116-1.014-5.295-4.825-8.473-8.847-9.558-5.576-1.505-11.187 2.307-10.533 6.805.62 4.263 1.56 10.447 5.832 12.737zm27.066-10.17c.319 5.77 4.952 10.82 10.49 12.317 8.922 2.49 13.332-3.783 15.329-10.54.199-.672.665-2.722-.587-4.48-4.924-6.915-16.903-5.736-22.887-3.838-1.751 1.675-2.467 4.093-2.345 6.54zm-31.387-9.953l.008.01.062-.038c-.023.01-.048.018-.07.028zm-7.465.667c.518-5.875 18.95-3.626 21.105-3.144 5.881 1.73 10.96 6.436 17.536 4.367 6.813-7.595 29.756-5.417 34.566-1.548.91-.357 2.017-.165 3.19.172 6.024-.218 33.523 1.859 27.898 9.548-.854.592-1.707-.01-1.73-1.23-29.322-10.587-26.48-.671-29.957-1.829-.531.153-1.085.25-1.57.351-2.691.866-3.605.599-3.96 3.62-2.435 23.334-33.504 15.281-30.956-3.859-2.523-.138-4.73-1.23-7.398-.164-1.852 18.03-16.359 18.757-20.725 12.507-3.292-4.338-1.987-10.884-6.512-14.297-1.786 1.495-1.901-3.551-1.487-4.494z" fill="#000"/>
  <path fill-rule="evenodd" clip-rule="evenodd" d="M203.799 293.044c-.643-5.971-1.039-11.984-1.267-17.985-.227-5.993.07-12.061.201-18.057.265-12.198.697-24.424-.274-36.604-.917-11.51-3.024-22.94-6.349-33.999-1.619-5.387-3.325-10.989-5.987-15.966-2.678-5.004-6.919-8.336-11.577-11.392-4.96-3.253-9.88-6.568-14.821-9.852-4.147-2.756-11.61-5.964-15.013-9.649-3.581-3.877-4.254-13.488-6.638-18.081-2.322-4.474-8.895-7.392-13.957-7.392-8.377 0-14.725-.428-21.613 7.322-3.437 3.868-.702 7.777-4.305 11.489-3.312 3.412-11.782 6.919-16.051 8.899-5.113 2.371-10.355 4.465-15.672 6.33-5.425 1.903-10.986 3.321-16.441 5.117-5.23 1.721-12.057 8.815-16.116 12.569-3.774 3.49-4.71 3.099-7.58 7.339-6.296 9.304-12.6 18.716-17.614 28.79-2.498 5.018-4.916 10.296-5.822 15.869-.967 5.944-.008 11.688 1.56 17.443 1.595 5.857 6.662 11.433 8.312 17.275.761 2.692-1.85 5.63-.65 8.167.6 1.267 1.356 2.396 2.216 3.5.663.85 3.247.662 3.582 1.703.338 1.051-1.532 3.233-1.56 4.322-.04 1.557-.101 3.115-.153 4.672l-.302 9.208-.595 18.151c-.065 1.975-.16 3.905.314 5.779a4.143 4.143 0 01-.482-.525c-.434-.567-1.355-.086-.986.577.615 1.107 1.5 1.886 2.539 2.446 1.208 1.781 184.146 5.759 185.046.552.505-2.922-.414-6.049-.782-8.952-.382-3.024-.837-6.034-1.163-9.065z" fill="#fff"/>
  <path fill-rule="evenodd" clip-rule="evenodd" d="M17.968 217.802c.448-1.283 2.495-.728 2.044.563-2.317 6.637-.673 13.86 1.832 20.196.502 1.271-1.549 1.817-2.044.563-2.635-6.665-4.265-14.352-1.832-21.322zm15.535 37.911c6.534.919 13.074 1.486 19.653 1.945.294.021.548-.024.768-.119a382.097 382.097 0 00-.48 9.044c-1.794-.05-3.624.069-5.402.021-2.324-.063-4.645-.18-6.964-.357a147.98 147.98 0 01-13.407-1.628c-1.659-.278-3.765-.447-5.654-.999-1.786-.521-3.376-1.386-4.21-3.013-.71-1.378-.84-3.065-.84-4.589 0-1.05.18-2.115.288-3.173.136-.095.258-.209.355-.336 1.972.623 4.017 1.06 6.02 1.484 3.262.694 6.572 1.256 9.873 1.72zm-3.685-24.503a10.453 10.453 0 001.686 5.571c.738 1.154-1.097 2.216-1.83 1.07-1.283-2.008-1.934-4.262-1.976-6.641-.024-1.367 2.095-1.362 2.12 0zm167.491 22.097c.885.049 1.775.079 2.663.127.782.669 1.866 1.012 2.856.799.034.086.065.182.093.293.175.681.263 1.412.363 2.106.101.684.178 1.373.231 2.062.026.347.193 1.132-.019 1.434-.191.273-.612.249-.903.283-.785.085-1.579.125-2.369.191l-4.473.39c-1.46.127-3.063.087-4.491.472-.244-2.865-.466-5.73-.673-8.597 2.213.326 4.526.318 6.722.44zm-185.507-4.752c.89 1.72 1.712 3.411 3.416 4.444.222.133.471.204.726.223-.191.819-.31 1.656-.416 2.43-.234 1.704-.284 3.466.143 5.146.416 1.635 1.105 3.096 2.456 4.142a8.541 8.541 0 002.035 1.153c-.122.342-.194.681-.156 1.055-.173.866-.287 1.749-.411 2.594-.273 1.876-.546 3.755-.76 5.642-.43 3.752-.766 7.505-1.05 11.27a372.696 372.696 0 00-.657 11.279 697.104 697.104 0 00-.236 5.774c-.071 1.98-.392 4.004.483 5.841.704 1.484 3.086 1.399 3.818 0 .927-1.778.654-3.891.678-5.841.024-1.836.056-3.675.095-5.512.08-3.76.196-7.518.29-11.278.09-3.67.2-7.338.275-11.009.037-1.921.04-3.842.05-5.763.005-1.066.05-2.202-.03-3.313.663.157 1.331.289 1.99.424a138.257 138.257 0 0015.25 2.253c2.572.233 5.153.397 7.734.49 1.897.069 3.863.201 5.79.13-.152 4.6-.22 9.203-.213 13.807.006 3.32.05 6.64.133 9.961.045 1.746.082 3.492.135 5.239.024.784.024 1.577.077 2.358.016.244.05.48.095.713-.175.496-.32.986-.44 1.445-.583 2.225-.583 4.364-.323 6.632.223 1.924 1.842 3.708 3.98 3.032.347-.109.694-.223 1.038-.339 3.148.358 6.315.44 9.508.501 4.665.09 9.334.119 14.003.143 9.157.048 18.317.072 27.477.098l55.221.156 15.326.045c2.644.008 5.283.011 7.925.112 1.232.047 2.467.114 3.699.132 1.428.024 2.692-.387 4.056-.76.771-.215 1.076-.989.912-1.643 1.234.294 2.731-.332 3.153-1.723a4.183 4.183 0 00-.265-3.04v-.002c-.885-5.589-2.009-11.152-2.891-16.743-.967-6.124-1.897-12.261-2.716-18.409-.615-4.643-1.121-1.352-1.558-6.016 1.905.148 4.059-.432 5.946-.679 1.354-.174 2.719-.315 4.075-.5-.101 1.367-.071 2.761-.109 4.073-.071 2.605-.039 5.199.027 7.804.127 5.027.411 2.101.864 7.107a342.629 342.629 0 001.701 15.087c.35 2.584.723 5.165 1.118 7.743.183 1.203.371 2.404.564 3.607.231 1.417.305 2.761 1.368 3.826.808.809 2.458.74 2.994-.387.678-1.423.371-2.642.119-4.136a457.55 457.55 0 01-1.767-11.329 675.571 675.571 0 01-1.98-14.927c-.604-5.022-1.229-2.089-1.823-7.11a376.773 376.773 0 00-.948-7.587c-.178-1.299-.289-2.682-.522-4.02.074-.011.148-.024.222-.038 1.611-.294 2.987-1.203 3.392-2.862.387-1.587-.074-3.413-.4-4.971-.278-1.327-.53-3.021-1.384-4.158 3.01-3.835 4.968-8.66 6.217-13.299 1.36-5.053 1.929-10.329 2.05-15.551a91.78 91.78 0 00-1.353-17.982 68.404 68.404 0 00-.175-3.759c-.912-12.285-4.738-26.826-16.868-32.566-.048-.024-.098-.045-.148-.066-.951-1.137-2.139-2.16-3.098-3.116-1.698-1.697-3.473-3.319-5.355-4.813-3.725-2.96-7.811-5.324-12.058-7.452-4.295-2.154-8.654-4.176-12.851-6.527-3.656-2.051-6.947-4.521-10.071-7.309-3.511-3.135-6.01-7.361-6.99-11.975-.05-.241-.408-.175-.413.056-.257 8.456 5.45 15.929 12.018 20.656 7.854 5.648 17.337 8.321 25.302 13.797 1.979 1.359 3.831 2.893 5.593 4.523-2.7-.276-5.447-.101-7.978.647-.996-.061-1.998-.08-2.997-.128a1517.382 1517.382 0 00-20.844-.879 1542.4 1542.4 0 00-27.453-.729c-18.392-.326-36.807-.39-55.195.143-4.987.143-31.208-.851-33.635-.57 3.57-3.09 7.486-5.612 11.791-7.688 5.387-2.589 10.954-4.316 16.706-5.896 11.847-3.251 24.15-6.386 33.63-14.646 2.355-2.054 4.448-4.415 6.163-7.031 1.637-2.496 3.457-5.692 3.502-8.737.032-2.162-2.978-2.949-4.048-1.097-.665 1.147-.994 2.406-1.537 3.609a26.368 26.368 0 01-1.895 3.443c-1.401 2.162-3.14 4.091-5.031 5.832-4.033 3.716-8.919 6.437-13.974 8.496-11.479 4.672-24.033 6.644-34.91 12.803-4.758 2.694-9.313 6.413-12.172 11.156-.461.072-.92.156-1.378.252.342-.432.686-.864 1.033-1.294.228-.28-.124-.651-.402-.402-5.408 4.812-10.39 10.009-14.905 15.674-4.318 5.422-8.346 11.104-11.197 17.454-5.124 11.405-6.253 24.451-3.606 36.647a57.583 57.583 0 003.034 9.722 60.885 60.885 0 002.196 4.786z" fill="#000"/>
  <path fill-rule="evenodd" clip-rule="evenodd" d="M128.551 10.683c15.045 0 33.888 17.164 39.403 24.468 4.636 6.141 3.98 37.777 3.98 56.544 0 3.925-1.774 11.353-2.418 15.108-2.36 13.757-12.641 25.295-32.99 25.295-16.569 0-29.319-5.249-41.65-18.674-2.813-3.062-16.55 7.902-19.36 3.954-7.339 0-13.475-68.577.933-89.146 14.409-20.569 37.057-17.549 52.102-17.549z" fill="#fff"/>
  <path fill-rule="evenodd" clip-rule="evenodd" d="M83.332 15.513c8.694-7.91 20.275-11.715 31.96-11.435 6.052.146 12.083 1.299 17.798 3.273 2.859.991 5.628 2.285 8.275 3.747.954.526 1.833 1.143 2.68 1.797l.211.164h.002c2.271.817 4.298 2.282 6.137 3.996 3.686-.294 7.4.038 10.964 1.175 4.96 1.584 9.552 4.486 12.777 8.607 3.756 4.797 5.005 10.616 4.559 16.623l-.082 1.02c-.441 5.307-1.23 12.133-5.585 15.62a3.4 3.4 0 01-1.076.588c2.806 4.807 5.109 10.144 6.487 15.534 5.259 20.588 1.216 42.059-5.109 61.902-.519 1.635-2.991 2.721-4.25 1.123-2.247-2.856-5.511-5.035-9.183-5.443-2.266-.251-4.521.204-6.662-.824a6.09 6.09 0 01-2.233-1.873 28.844 28.844 0 01-11.367 1.857c-6.336-.26-13.108-2.454-17.467-7.266-.699-.773-.877-1.64-.715-2.422a9.287 9.287 0 011.686-.431c5.527 3.258 11.619 5.435 18.167 5.572 3.784.079 7.474-.45 10.542-2.813a15.088 15.088 0 001.838-1.686c6.414-4.127 10.936-11.136 13.086-18.644 2.004-7.001 1.757-14.291 1.068-21.473l-.363-3.79c-.53-5.561-1.022-11.14-1.159-16.726l.041-.002c1.355-.088 1.365-2.209 0-2.12-3.529.228-7.031-.35-10.549-.098-.03-1.664-.149-3.32-.638-4.924-.279-.917-1.875-1.098-2.044 0-.227 1.468-.309 2.928-.334 4.403-5.265-.07-10.525-.514-15.791-.331-.971-1.037-1.281-2.874-1.735-4.152a41.519 41.519 0 00-.201-.562 30.114 30.114 0 01-1.71 5.362l-1.292.004c-7.327.034-14.804.253-21.959 1.775-.497-.381-.793-1.048-.873-1.653-.519-3.936-1.26-7.769-2.573-11.52l-.188-.53-.048-.14c-.968 1.563-2.122 3.018-3.381 4.374a44.718 44.718 0 01-2.318 2.305c-.775.861-1.577 1.71-2.354 2.573.03.157.057.317.079.48.237 1.792.262 3.61.088 5.41a25.953 25.953 0 01-2.709 9.289l-.046.29c-.224 1.359-.543 2.764-1.287 3.787a9.699 9.699 0 012.06 3.666c.368 1.23-1.333 2.295-2.215 1.289-.701-.8-1.48-1.461-2.335-1.99-.054.074-.152.11-.261.05-2.382-1.323-6.428-.923-8.808.323-2.96 1.547-4.114 4.724-3.786 7.944.316 3.077 1.662 6.673 4.271 8.25 1.198.723 2.13.784 3.403.437.406-.11.91-.45 1.127-.618l.213-.17c.834-.66 1.61-1.11 2.594-1.128 1.007-.314 2.019.121 2.404 1.177l.023.069c.18.537.51 1.213.438 2.035-.075.88-.477 1.68-1.079 2.324a5.744 5.744 0 01-.328.326c10.36 11.217 11.69 28.697 6.377 42.71a43.6 43.6 0 01-.734 1.823c-.887 2.062-4.305 1.423-4.74-.62a45.474 45.474 0 00-1.417-5.139l-.14-.408c-.316-.901-.61-1.809-.928-2.71l-.032-.104a6.669 6.669 0 01-.04-.14l-.538 1.174-1.635 3.543c-.764 1.653-3.195.755-3.285-.839l-.003-.054a28.249 28.249 0 00-1.12-7.203l-.215.266c-3.188 3.943-6.93 7.638-12.064 8.548-1.288.228-2.745-1.118-1.86-2.42a33.52 33.52 0 001.052-1.648 11.168 11.168 0 01-.814-.419c-1.947-1.094-3.569-2.652-4.91-4.42-2.842-3.747-3.86-8.464-4.109-13.08-.265-4.879.164-10.023 1.497-14.729.578-2.035 1.36-3.988 2.263-5.883a77.322 77.322 0 01-2.626-8.82 81.049 81.049 0 01-2.149-17.365c-.159-10.449 1.643-21.065 5.44-30.809 3.921-10.048 9.82-19.729 17.845-27.03zM78.45 106.87c-.72-1.134-2.521-.113-1.853 1.029l.025.041c1.142 1.8 1.677 3.845 2.335 5.851.42 1.291 2.469.74 2.042-.564l-.14-.435c-.655-2.035-1.251-4.102-2.409-5.922zm6.272-21.646l.478-.231c1.509-.72 2.831-1.211 4.614-.582 2.387.84 4.944 3.514 3.33 6.108-.593.957-1.647 1.338-2.734 1.113-1.831-.38-2.304-2.03-3.233-3.383l-.16-.23c-.567-.819-1.283-1.952-2.227-2.273-.214-.074-.304-.408-.069-.522zm1.346-55.082l.154-.139c1.025-.906-.48-2.4-1.5-1.5-4.669 4.127-6.29 10.585-8.712 16.089-.543 1.237 1.282 2.319 1.831 1.07 2.31-5.252 3.843-11.535 8.227-15.52zm56.104-1.805c-1.22-.55-2.288 1.225-1.115 1.81l.044.02c4.123 1.864 5.877 6.083 7.557 10 .535 1.25 2.361.172 1.831-1.069l-.303-.702c-1.753-4.037-3.798-8.151-8.014-10.06zm6.461-2.55c-1.293-.447-1.846 1.598-.564 2.046 3.495 1.216 5.893 3.84 7.914 6.84.758 1.123 2.594.063 1.829-1.07-2.348-3.483-5.135-6.406-9.179-7.816z" fill="#000"/>
  <path fill-rule="evenodd" clip-rule="evenodd" d="M141.536 113.49a10.794 10.794 0 01-4.532-3.487c-.404-.539-.509-1.107-.424-1.627.095-.585.441-1.115.912-1.47.474-.356 1.065-.532 1.637-.443.498.078.993.35 1.384.915l.082.113a7.146 7.146 0 002.617 2.196 5.891 5.891 0 003.238.569c2.179-.246 3.681-1.425 5.277-3.025.198-.202.396-.411.595-.622a.932.932 0 01.494-.38c.214-.072.458-.068.68.01.215.075.407.217.536.406a.99.99 0 01.169.657c-.146 1.658-1.013 3.139-2.245 4.301-1.367 1.291-3.181 2.184-4.888 2.497-1.88.345-3.797.098-5.532-.61zm6.419-25.588c2.001 1.216 5.05 4.053 2.898 7.068-2.534 2.659-6.182-.39-7.98-1.768-1.666-1.069-3.539 1.68-1.993 2.927 12.99 9.618 18.261-7.91 8.087-9.657-1.12-.193-1.536 1.054-1.012 1.43zm-23.277-11.189c.221-2.744 4.4-3.367 4.816-.652.372 2.433-.066 4.668-1.162 6.858-1.046 2.093-3.678 1.116-3.877-.789-.266-2.554.086-3.71.223-5.417zm31.813-1.215c.582-.763 1.424-1.284 2.432-.99 3.149.92 2.221 5.392 1.115 7.569-.601 1.182-2.544 1.481-3.422.44-1.431-1.696-2.116-5.085-.297-6.757.05-.087.104-.174.172-.262zm-28.203-10.793l.498-.087c1.538-.267 3.452-.522 4.54.715.578.656.776 1.876 0 2.504-1.365 1.105-2.874.676-4.51.77-1.348.077-2.644.3-3.942.672-2.849.814-5.171 2.3-7.604 3.933-.319.214-.645-.194-.493-.493 1.405-2.751 4.127-5.011 6.854-6.39 1.455-.734 3.047-1.344 4.657-1.624zm25.332-1.233l.381.078c4.143.866 9.526 2.596 11.488 6.667.075.575-.004.699-.068.78l-.022.026c-.053.069-.095.164-.344.242a10.722 10.722 0 01-.21-.052c-.899-.236-1.611-.56-2.3-.898l-.747-.368c-.866-.425-1.741-.834-2.667-1.137a31.41 31.41 0 00-6.076-1.342c-.448-.052-.879-.203-1.219-.462a1.833 1.833 0 01-.682-1.039c-.145-.585-.104-1.028.211-1.556.236-.397.574-.672.962-.83.395-.16.845-.199 1.293-.109z" fill="#000"/>
  <path fill-rule="evenodd" clip-rule="evenodd" d="M170.298 90.274c-1.784 2.397-5.091 3.16-8.142 2.896-6.579-.633-8.65-8.106-8.865-13.915 4.412 1.241-.373-7.55 14.708-8.516 5.317-.444 3.851 2.768 6.2 5.114-.048 4.924-.868 10.275-3.901 14.42zm-31.337-5.659c-3.885 18.193-25.156 13.866-27.39-2.534 2.063-1.456 1.52-5.053 4.083-6.356 4.063-2.596 9.141-2.484 13.754-2.424 5.897.406 7.577 2.849 10.606 5.514-.145 1.78-.566 3.89-1.053 5.8zm39.763-16.89c-.218-.036-.436-.07-.654-.102a1.976 1.976 0 00-.603-.216 10.323 10.323 0 00-1.586-.275c-7.56-1.701-25.049.715-25.771 7.167-2.408.804-4.491.084-7.281.155-2.124-8.878-38.844-7.625-40.61-2.272l-.02-.006c-1.697-.525-4.198-.398-6.14-.482-4.147-.087-8.3.283-12.357 1.158-7.597 1.207-17.967 2.621-12.683 12.11l.003.005h.001c.911.933 2.457.181 2.514-1.082-1.777-4.496 2.236-5.036 5.323-6.327 7.683-2.76 15.504-3.143 23.449-2.29.598.704 1.505 1.318 2.463 1.64 5.313.881 2.513 4.822 5.871 5.395-.617 13.739 16.06 21.238 25.723 12.207 3.858-3.773 4.778-9.362 5.673-14.399.473-.106.773-.365.949-.707 1.138-1.136 1.852-2.185 4.101-2.497 2.25-.311 3.981.314 4.215.506.06.119.123.238.197.357.102.178.242.32.401.431-2.221 13.68 8.398 22.333 19.118 15.237 4.658-4.382 5.643-11.091 5.837-17.08.632-.38 1.031-1.12.813-2.048-.301-1.28.405-2.388 1.53-2.945 1.462-.722 1.203-3.361-.476-3.64z" fill="#000"/>
</svg>
